<svg width="76" height="72" viewBox="0 0 76 72" fill="none" xmlns="http://www.w3.org/2000/svg">
<g clip-path="url(#clip0)">
<path d="M75.3781 35.4781C75.1693 15.8845 58.4175 0.176737 37.9629 0.394743C17.5083 0.612749 1.09504 16.674 1.30387 36.2675C1.5127 55.8611 18.2645 71.5689 38.7191 71.3509C59.1737 71.1329 75.587 55.0717 75.3781 35.4781ZM7.47678 36.2018C7.30276 19.8738 20.9804 6.48947 38.0259 6.3078C55.0714 6.12613 69.0312 19.2159 69.2052 35.5439C69.3792 51.8718 55.7016 65.2561 38.6561 65.4378C21.6106 65.6195 7.6508 52.5297 7.47678 36.2018Z" fill="#F8CD6B"/>
<path d="M55.9149 31.8626C57.1079 30.6952 57.0879 28.8231 55.8703 27.6814C54.6527 26.5397 52.6984 26.5605 51.5054 27.728L38.391 40.5612L25.006 28.0104C23.7884 26.8687 21.8341 26.8895 20.6411 28.0569C19.4481 29.2243 19.468 31.0963 20.6856 32.2381L36.2754 46.8561C37.493 47.9979 39.4473 47.977 40.6403 46.8096L55.9149 31.8626Z" fill="#F8CD6B"/>
</g>
<defs>
<clipPath id="clip0">
<rect width="70.9602" height="74.0785" fill="white" transform="translate(75) rotate(89.3894)"/>
</clipPath>
</defs>
</svg>
